<?xml version="1.0" encoding="iso-8859-1"?>
<!-- Generator: Adobe Illustrator 19.0.0, SVG Export Plug-In . SVG Version: 6.00 Build 0)  -->
<svg version="1.1" id="Layer_1" xmlns="http://www.w3.org/2000/svg" xmlns:xlink="http://www.w3.org/1999/xlink" x="0px" y="0px"
	 viewBox="0 0 511.999 511.999" style="enable-background:new 0 0 511.999 511.999;" xml:space="preserve">
<g>
	<g>
		<g>
			<circle cx="305.13" cy="32.214" r="8.58"/>
			<circle cx="129.125" cy="141.077" r="8.58"/>
			<circle cx="129.125" cy="104.425" r="8.58"/>
			<path d="M273.046,24.329h-29.282c-4.355,0-7.885,3.53-7.885,7.885c0,4.355,3.53,7.885,7.885,7.885h29.282
				c4.355,0,7.885-3.53,7.885-7.885C280.931,27.859,277.401,24.329,273.046,24.329z"/>
			<path d="M304.703,176.789c-3.938-1.856-8.637-0.167-10.494,3.772l-55.427,117.671c-1.857,3.94-0.167,8.638,3.772,10.494
				c1.086,0.511,2.23,0.754,3.355,0.754c2.958,0,5.794-1.673,7.139-4.527l55.429-117.671
				C310.332,183.342,308.642,178.645,304.703,176.789z"/>
			<path d="M376.05,0H135.949c-18.107,0-32.838,14.732-32.838,32.839v446.32c0,18.108,14.731,32.839,32.838,32.839h240.1
				c18.108,0,32.839-14.732,32.839-32.839V32.839C408.889,14.732,394.157,0,376.05,0z M154.832,32.839
				c0-9.413,7.657-17.069,17.067-17.069h204.149c9.413,0,17.069,7.658,17.069,17.069v18.943H154.832V32.839z M143.858,496.23h-7.909
				c-9.412,0-17.068-7.658-17.068-17.069V32.839c0-9.413,7.657-17.069,17.068-17.069h7.909c-3.04,4.977-4.795,10.822-4.795,17.069
				v446.32C139.062,485.408,140.817,491.253,143.858,496.23z M154.832,67.552h238.286v342.172H154.832V67.552z M393.119,479.161
				c0,9.413-7.657,17.069-17.069,17.069H171.901c-9.411,0-17.067-7.658-17.067-17.069v-53.666h238.286V479.161z"/>
			<path d="M273.976,492.018c16.715,0,30.315-13.6,30.315-30.316c0-16.716-13.6-30.316-30.315-30.316
				c-16.716,0-30.317,13.6-30.317,30.316C243.658,478.418,257.258,492.018,273.976,492.018z M273.976,447.156
				c8.021,0,14.545,6.526,14.545,14.546s-6.525,14.546-14.545,14.546c-8.022,0-14.547-6.526-14.547-14.546
				S265.954,447.156,273.976,447.156z"/>
			<path d="M371.953,233.337l-51.647-27.657c-3.843-2.056-8.619-0.61-10.673,3.229c-2.056,3.841-0.611,8.619,3.228,10.675
				l38.666,20.706l-38.666,20.706c-3.838,2.055-5.284,6.835-3.228,10.673c1.421,2.655,4.143,4.164,6.958,4.164
				c1.255,0,2.531-0.301,3.715-0.936l51.647-27.657c2.563-1.373,4.162-4.044,4.162-6.951
				C376.115,237.382,374.516,234.711,371.953,233.337z"/>
			<path d="M234.099,260.997l-38.666-20.706l38.666-20.706c3.838-2.056,5.284-6.835,3.229-10.673
				c-2.056-3.839-6.835-5.285-10.673-3.229l-51.647,27.657c-2.563,1.373-4.163,4.044-4.163,6.951c0.001,2.905,1.6,5.576,4.163,6.949
				l51.647,27.657c1.185,0.635,2.459,0.936,3.715,0.936c2.813,0,5.536-1.511,6.958-4.164
				C239.383,267.832,237.937,263.052,234.099,260.997z"/>
		</g>
	</g>
</g>
<g>
</g>
<g>
</g>
<g>
</g>
<g>
</g>
<g>
</g>
<g>
</g>
<g>
</g>
<g>
</g>
<g>
</g>
<g>
</g>
<g>
</g>
<g>
</g>
<g>
</g>
<g>
</g>
<g>
</g>
</svg>
