<?xml version="1.0" encoding="iso-8859-1"?>
<!-- Generator: Adobe Illustrator 18.0.0, SVG Export Plug-In . SVG Version: 6.00 Build 0)  -->
<!DOCTYPE svg PUBLIC "-//W3C//DTD SVG 1.1//EN" "http://www.w3.org/Graphics/SVG/1.1/DTD/svg11.dtd">
<svg fill='white' version="1.1" id="Capa_1" xmlns="http://www.w3.org/2000/svg" xmlns:xlink="http://www.w3.org/1999/xlink" x="0px" y="0px"
	 viewBox="0 0 455.925 455.925" style="enable-background:new 0 0 455.925 455.925;" xml:space="preserve">
<g>
	<g>
		<path d="M83.212,86.527h-4.339V37.593c0-13.72-11.119-24.839-24.839-24.839c-13.719,0-24.838,11.119-24.838,24.839v48.934h-4.341
			C11.119,86.527,0,97.661,0,111.365c0,13.736,11.119,24.855,24.854,24.855h4.341v282.111c0,13.721,11.119,24.84,24.838,24.84
			c13.72,0,24.839-11.119,24.839-24.84V136.22h4.339c13.735,0,24.854-11.119,24.854-24.855
			C108.065,97.661,96.947,86.527,83.212,86.527z"/>
	</g>
	<g>
		<path d="M199.17,301.869h-4.341V37.593c0-13.72-11.118-24.839-24.838-24.839c-13.734,0-24.853,11.119-24.853,24.839v264.276
			h-4.341c-13.719,0-24.838,11.117-24.838,24.853c0,13.734,11.119,24.854,24.838,24.854h4.341v66.756
			c0,13.721,11.119,24.84,24.853,24.84c13.721,0,24.838-11.119,24.838-24.84v-66.756h4.341c13.721,0,24.838-11.119,24.838-24.854
			C224.008,312.987,212.891,301.869,199.17,301.869z"/>
	</g>
	<g>
		<path d="M315.128,169.352h-4.341V37.593c0-13.72-11.119-24.839-24.853-24.839c-13.72,0-24.838,11.119-24.838,24.839v131.759
			h-4.341c-13.72,0-24.838,11.134-24.838,24.839c0,13.734,11.118,24.854,24.838,24.854h4.341v199.287
			c0,13.721,11.118,24.84,24.838,24.84c13.734,0,24.853-11.119,24.853-24.84V219.044h4.341c13.719,0,24.838-11.119,24.838-24.854
			C339.967,180.486,328.848,169.352,315.128,169.352z"/>
	</g>
	<g>
		<path d="M431.07,53.395h-4.324V37.593c0-13.72-11.135-24.839-24.853-24.839c-13.72,0-24.839,11.119-24.839,24.839v15.802h-4.34
			c-13.735,0-24.855,11.117-24.855,24.853c0,13.734,11.119,24.854,24.855,24.854h4.34v315.231c0,13.721,11.119,24.84,24.839,24.84
			c13.719,0,24.853-11.119,24.853-24.84V103.101h4.324c13.735,0,24.855-11.119,24.855-24.854
			C455.925,64.512,444.806,53.395,431.07,53.395z"/>
	</g>
</g>
<g>
</g>
<g>
</g>
<g>
</g>
<g>
</g>
<g>
</g>
<g>
</g>
<g>
</g>
<g>
</g>
<g>
</g>
<g>
</g>
<g>
</g>
<g>
</g>
<g>
</g>
<g>
</g>
<g>
</g>
</svg>
